<?xml version="1.0" encoding="UTF-8"?><svg id="a" xmlns="http://www.w3.org/2000/svg" xmlns:xlink="http://www.w3.org/1999/xlink" viewBox="0 0 750 750"><defs><style>.c{fill:none;}.c,.d{stroke-width:0px;}.d{fill:#000;}.e{clip-path:url(#b);}</style><clipPath id="b"><rect class="c" width="750" height="750"/></clipPath></defs><g class="e"><path class="d" d="M0,350.83h27.08c9.38,1.78,15.07,13.28,9.57,21.42-5.55,8.15-16.38,7.9-25.13,7.52v13.57c4.25.05,8.53-.2,12.77.38.35,1.1,1.03,3.28,1.38,4.38-8.53.53-17.1.43-25.65.07l-.02,1v-5.18c2.23-.35,4.48-.67,6.73-.92-.07-12.53.18-25.08-.2-37.63-2.18-.07-4.35-.15-6.53-.23v-4.37M11.85,355.37c-.45,6.33-.35,12.72-.33,19.07,6.72-.2,14.63,1.35,19.98-3.78,4.28-3.47,2.88-10.52-1.6-13.15-5.52-3.03-12.02-1.92-18.05-2.13"/><path class="d" d="M50.43,350.83h20.68c5.73,13.78,10.78,27.83,16.17,41.75,3.08.65,5.92,1.78,5.65,5.55-6.23.42-12.52.4-18.75.03-.62-5.57,4.6-4.8,8.37-5.08-1.27-3.32-2.5-6.63-3.73-9.95-7.17-.07-14.35,0-21.52-.1-1.22,3.4-2.5,6.77-3.87,10.1,3.8.32,9.02-.57,8.83,4.9-6.02.43-12.08.75-18.08.07-3.68-4.45,4.73-3.9,5.37-7.65,4.53-11.6,8.83-23.32,13.15-35.02-4.53-.6-12,2.28-12.27-4.6M67.78,354.95c-2.7,7.65-5.6,15.22-8.43,22.82h17.42c-3.12-7.55-5.83-15.27-8.98-22.82"/><path class="d" d="M95.38,350.83h39.08c.13,5.07.35,10.13.05,15.2.32,2.35-2.65,2.83-3.92,4.13-.62-4.92-.63-9.85-.77-14.78-4.2.02-8.4.02-12.6.02-.13,12.63.05,25.25-.12,37.87,3.53.08,7.08-.02,10.58.43.17,1.82.27,3.65.33,5.47h-.78c-8.08-2.22-16.77.33-25.05-1.05-.1-1.07-.32-3.18-.42-4.25,3.63-.58,7.32-.52,10.97-.65-.15-12.6.02-25.2-.1-37.82-4.17,0-8.32,0-12.47-.02-.13,5-.13,10.05-1.07,15-.93-.7-2.8-2.12-3.73-2.82-.12-5.58-.1-11.15,0-16.73"/><path class="d" d="M176.85,350.83h12.23c4.28,9.07,8.25,18.27,12.27,27.45,4.22-9.08,7.87-18.43,12.28-27.45h11.83c-.13,3.02-2.15,4.63-4.8,5.53-.17,12.1.03,24.2-.13,36.3,3.05.62,5.75,1.82,5.63,5.47-6.23.42-12.5.4-18.73.02-.62-5.9,5.18-4.63,9.1-5.02-.2-12.55-.15-25.1.05-37.65-4.05,8.47-7.5,17.2-11.4,25.72-.62,2.67-3.18,3.47-5.45,4.25-4.68-9.58-8.82-19.43-13.17-29.17.02,12.28.02,24.57,0,36.85,2.75.13,5.5.38,8.25.72-.1,1.07-.27,3.22-.37,4.28-5.65.5-11.38.55-17.03-.02-2.85-3.62,2.12-4.57,4.35-5.47-.1-12.03.28-24.07-.25-36.1-2.35-1.2-3.62-3.42-4.67-5.72"/><path class="d" d="M295.6,350.83h18.42c.27.58.78,1.75,1.05,2.33l1.58-.1c.42-.57,1.27-1.68,1.68-2.23h3.07c.25,4.8.3,9.65-.6,14.38-2.93-2.22-4.42-5.72-7.08-8.18-4.27-2.92-9.82-2.67-14.68-1.87-7.18,2.32-11.85,9.87-12.02,17.23-.37,6.6.5,14.4,6.32,18.58,6.73,5.13,15.92,3.98,23.47,1.52.02-3.68,0-7.35.02-11-4.53,0-9.05-.02-13.57-.2.22-1.63.48-3.25.8-4.87,6.88-.45,13.83-.55,20.7.15.98,2.67-1.37,4.35-2.98,6.02-.13,4.47-.22,8.95-.48,13.43-3.82,1.28-7.63,2.68-11.65,3.13h-8.75c-5.33-.47-10.32-3.13-13.62-7.35-5.33-6.13-5.12-14.93-4.5-22.57.57-7.92,5.65-15.08,12.83-18.42"/><path class="d" d="M332.37,350.83h28.1c6.43,1.88,12.4,8.02,11.15,15.15-.8,5.22-5.52,8.17-9.8,10.4,4.92,4.75,8.63,10.48,12.1,16.32,3.1.53,5.88,1.62,5.67,5.37-2.63.18-5.25.32-7.85.43-4.33-7.32-8.4-15.52-16.02-19.95-3.65-.93-7.48-.45-11.2-.6.02,5.05.02,10.12-.02,15.17,3.87.08,8.93-.35,8.57,5-6.52.35-13.07.67-19.57-.03-2.12-5.18,3.08-4.62,6.5-5.05-.08-12.43.07-24.88-.1-37.32-3.57-.08-7.22-.42-7.53-4.88M344.57,355.42c-.05,5.75-.02,11.52-.05,17.27,6.77-.02,14.47.98,20.02-3.78,3.78-2.6,2.82-8.35-.72-10.68-5.53-4.13-12.85-2.55-19.25-2.8"/><path class="d" d="M389.88,350.83h20.73c5.6,13.9,10.68,27.98,16.23,41.92,3.08.47,5.32,2.03,5.7,5.33-6.05.47-12.1.38-18.15.25-.17-1.13-.5-3.4-.67-4.53,2.77-.27,5.53-.45,8.32-.63-1.33-3.37-2.65-6.73-4-10.1-7.08.03-14.18.03-21.27.02-1.3,3.32-2.57,6.65-3.87,9.98,3.77.13,8.98-.2,8.43,5.07-5.77.28-11.6.7-17.33-.05-.4-1.03-1.18-3.12-1.58-4.15,1.38-.18,4.15-.53,5.53-.72,4.72-12.57,9.52-25.1,14.1-37.73-4.48-.73-12.17,2.37-12.18-4.65M398.68,377.8c5.82-.03,11.62-.03,17.43-.02-2.95-7.62-5.97-15.2-8.75-22.87-2.97,7.6-5.72,15.28-8.68,22.88"/><path class="d" d="M433.62,350.83h38.72c.15,5.6.13,11.22.1,16.82-.77.73-2.33,2.18-3.1,2.9-1.22-4.95-1.15-10.08-1.22-15.15h-12.72c-.17,12.62.07,25.23-.15,37.85,3.7.1,7.45.02,11.13.65-.13,1.03-.38,3.13-.5,4.18-8.83.7-17.73.43-26.58.02-.18-6.85,7.32-4.18,11.57-4.88-.13-12.6,0-25.2-.1-37.82-4.08,0-8.18,0-12.27-.02-.2,4.52.15,9.13-.9,13.58-.88-.07-2.65-.18-3.53-.23-1.07-5.9-.45-11.95-.45-17.9"/><path class="d" d="M482.57,350.83h16.63c-.13,4.4-3.55,5.05-7.2,4.93-.05,5.07-.05,10.13-.08,15.2h21.38c-.05-5.07-.05-10.13-.1-15.2-3.52-.2-7.35-.33-7.08-4.93h16.48c-.72,2.5-2.08,4.62-4.45,5.82-.22,12.18-.02,24.37-.1,36.53,1.52.17,4.58.5,6.12.65-.37,1.07-1.08,3.22-1.45,4.28-5.55.68-11.17.3-16.72-.03-.1-4.63,3.75-4.9,7.33-5.12-.1-5.57-.1-11.13-.05-16.7-7.13.02-14.27.03-21.38-.02.07,5.65.08,11.28-.02,16.93,2.45.2,4.9.42,7.37.67-.4,1.05-1.17,3.18-1.55,4.23-5.57.75-11.2.33-16.78-.02.1-3.98,3.2-4.97,6.57-5.33-.13-12.05.05-24.12-.1-36.17-2.6-1.05-4.15-3.08-4.82-5.73"/><path class="d" d="M564.48,350.83h25.32c-.03,1.02-.07,3.05-.1,4.07-3.18.55-6.42.53-9.62.65-.57,12.6-.15,25.22-.28,37.82h21c.2-5.83-1.32-12.35,2.7-17.28,2.78,7.33,2.2,15.52.82,23.08h-28.15l-11.18-1.27c-1.48-6.5,6.25-3.93,10.07-4.68-.07-12.57.12-25.13-.15-37.68-4.07-.53-10.78,1.63-10.42-4.7"/><path class="d" d="M618.57,350.83h20.72c5.63,13.87,10.78,27.93,16.15,41.92,3,.62,6.45,1.17,5.07,5.32-6.07.68-12.18.4-18.25.07-.72-5.62,4.75-4.65,8.48-5.1-1.35-3.32-2.65-6.63-3.97-9.95-7.08,0-14.18.05-21.28-.05-1.28,3.37-2.6,6.73-3.97,10.08,3.18.33,10.92-.65,7.67,5.03-6.05.58-12.15.35-18.18-.12.3-3.33,2.63-4.8,5.7-5.25,4.92-12.37,9.48-24.85,14.1-37.33-4.53-.62-12,2.28-12.23-4.62M635.93,354.92c-2.72,7.65-5.67,15.23-8.47,22.85,5.82,0,11.63,0,17.47.02-3.18-7.55-5.95-15.27-9-22.87"/><path class="d" d="M663.53,350.83h28.9c4.95,1.38,9.37,5.1,10.4,10.32,1.32,4.52-2,8.38-4.45,11.77,2.93,2.28,6.35,4.5,7.52,8.23,2.97,8.05-4.27,17.12-12.52,17.17-9.83.23-19.68.27-29.5-.17-.54-4.83,3.57-4.92,7.17-5.25-.17-12.38,0-24.77-.1-37.13-3.53-.15-7.25-.42-7.42-4.93M675.23,355.4c-.08,5.18-.05,10.37-.12,15.57,5.75-.27,11.73.82,17.33-.9,3.88-1.17,7.93-6.17,4.87-10.05-5.08-6.92-14.77-4.02-22.08-4.62M675.12,376.38c.08,5.65.07,11.32-.02,16.97,6.58-.17,13.23.52,19.79-.43,5.33-.87,9.35-7.88,5.18-12.27-6.22-7.13-16.75-3.22-24.95-4.27"/><path class="d" d="M723.72,350.83h16.98c.23.58.72,1.77.95,2.37l1.57-.13c.43-.57,1.33-1.68,1.78-2.23h2.85c.27,4.73,1.17,9.72-.58,14.27-3.57,1.13-3.35-3.43-4.88-5.27-4.42-8.23-20.28-6.92-21.92,2.88.13,2.42,1.25,4.95,3.55,6.05,6.05,3.07,13.28,2.4,19.42,5.32,3.28,1.55,5.05,4.9,6.57,8.02v5.97c-2.13,5.5-6.53,10.37-12.65,11.1h-9.35c-2.08-.42-4.17-.85-6.22-1.32-.72-.95-1.43-1.88-2.12-2.83-.87,1.03-2.6,3.1-3.47,4.13-2.93-5.08-3.58-12.58.57-17.2,1.58,3,2.52,6.43,4.77,9.03,5.27,4.62,13.78,4.83,19.65,1.25,4.65-2.62,5.75-10.25.8-13.15-7.42-3.97-17.43-2.12-23.6-8.6-5.02-6.48-1.7-16.17,5.33-19.65"/><path class="d" d="M238.3,367.48c6.33-7.47,17.42-7.52,25.75-3.63,1.77-.72,3.55-.98,5.37-.83.78,4.82,1.82,10.65-2.12,14.4-2.05-3.52-3.35-8.13-7.55-9.7-6.52-2.65-15.63-1.6-19.43,5-4.5,6.73-2.27,17.33,5.57,20.53,8.85,3.95,18.22-.87,25.13-6.38.2,1.73.32,3.47.37,5.22-3.72,4.32-9.32,6.7-14.95,7.08h-8.92c-14-2.57-18.77-21.9-9.22-31.68"/></g></svg>