<?xml version="1.0" encoding="utf-8"?>
<!-- Generator: Adobe Illustrator 24.0.1, SVG Export Plug-In . SVG Version: 6.00 Build 0)  -->
<svg version="1.1" id="Layer_1" xmlns="http://www.w3.org/2000/svg" xmlns:xlink="http://www.w3.org/1999/xlink" x="0px" y="0px"
	 viewBox="0 0 2000 2000" style="enable-background:new 0 0 2000 2000;" xml:space="preserve">
<style type="text/css">
	.st0{display:none;fill:#FFFFFF;stroke:#000000;stroke-miterlimit:10;}
	.st1{fill:url(#SVGID_1_);}
	.st2{fill:url(#SVGID_2_);}
	.st3{fill:url(#SVGID_3_);}
	.st4{fill:url(#SVGID_4_);}
</style>
<rect class="st0" width="2000" height="2000"/>
<g>
	<path d="M1236.22,1259.6c-1.53-0.59-3.06-1.28-4.44-2.02c-12.59-6.37-19.56-16.94-27.46-28.84l-129.58-195.26h-44.1h-62.91h-44.1
		l-129.58,195.26c-7.9,11.9-14.86,22.47-27.46,28.84c-1.38,0.74-2.91,1.43-4.44,2.02c-12.99,5.04-27.6,5.93-41.04,6.96
		c-11.36,0.89-22.72,1.38-34.07,2.47v16.94h234.17v-16.94c0,0.35-16.44-0.4-18.47-0.69c-3.61-0.59-7.26-1.58-10.37-3.51
		c-2.12-1.28-3.95-3.16-4.84-5.43c-2.32-6.07,1.83-12.94,5.09-17.83c0-0.05,48.15-72.59,106.57-160.69
		c58.42,88.1,106.57,160.64,106.57,160.69c3.26,4.89,7.41,11.75,5.09,17.83c-0.89,2.27-2.72,4.15-4.84,5.43
		c-3.11,1.93-6.77,2.91-10.37,3.51c-2.02,0.3-18.47,1.04-18.47,0.69v16.94h234.17v-16.94c-11.36-1.09-22.72-1.58-34.07-2.47
		C1263.83,1265.53,1249.21,1264.64,1236.22,1259.6z"/>
	<path d="M1077.26,714.03v17.04c0-0.54,9.98,0.2,10.72,0.35c8.05,0.64,15.85,2.67,18.77,11.11c2.47,7.65-0.74,16.1-4.94,22.42
		L999.19,919.61L896.57,764.94c-4.2-6.32-7.41-14.77-4.94-22.42c2.91-8.44,10.72-10.47,18.77-11.11c0.74-0.15,10.72-0.89,10.72-0.35
		v-17.04H687.04v17.04c12.35,0.54,75.41,3.46,81.93,8.79c6.42,5.48,14.81,16,24.99,31.56c0,0,61.18,92.3,129.38,195.11h44.69h62.32
		h44.69c68.2-102.81,129.38-195.11,129.38-195.11c10.17-15.56,18.57-26.07,24.99-31.56c6.52-5.33,69.58-8.25,81.93-8.79v-17.04
		H1077.26z"/>
	<radialGradient id="SVGID_1_" cx="977.9261" cy="991.3777" r="231.985" gradientUnits="userSpaceOnUse">
		<stop  offset="0" style="stop-color:#FFFBCC"/>
		<stop  offset="0.1146" style="stop-color:#FBF2BB"/>
		<stop  offset="0.3413" style="stop-color:#F0D98E"/>
		<stop  offset="0.3708" style="stop-color:#EED688"/>
		<stop  offset="0.6854" style="stop-color:#EBBB10"/>
		<stop  offset="1" style="stop-color:#C3922E"/>
	</radialGradient>
	<path class="st1" d="M999.2,970.62c-104.29-0.2-212.13-0.41-318.8-1.88l-157.25-2.21l157.25-2.21
		c106.65-1.48,214.5-1.68,318.8-1.88c98.29,0.17,209.71,0.36,318.78,1.85l158.88,2.24l-158.88,2.24
		c-108.86,1.49-220.39,1.68-318.79,1.85H999.2z"/>
	<radialGradient id="SVGID_2_" cx="977.9274" cy="1024.2666" r="232.1215" gradientUnits="userSpaceOnUse">
		<stop  offset="0" style="stop-color:#FFFBCC"/>
		<stop  offset="0.1146" style="stop-color:#FBF2BB"/>
		<stop  offset="0.3413" style="stop-color:#F0D98E"/>
		<stop  offset="0.3708" style="stop-color:#EED688"/>
		<stop  offset="0.6854" style="stop-color:#EBBB10"/>
		<stop  offset="1" style="stop-color:#C3922E"/>
	</radialGradient>
	<path class="st2" d="M999.2,1037.56c-104.29-0.2-212.13-0.41-318.8-1.88l-157.25-2.21l157.25-2.21
		c106.65-1.48,214.5-1.68,318.8-1.88c98.38,0.17,209.9,0.36,318.78,1.85l158.88,2.24l-158.88,2.24
		c-108.86,1.49-220.39,1.68-318.79,1.85H999.2z"/>
	<path d="M1242.79,1114.2c-18.46,0-31.88-4.61-40.25-13.84c-8.38-9.23-12.57-21.51-12.57-36.85c0-11.92,2.91-21.79,8.74-29.6
		c5.82-7.81,13.27-14.19,22.36-19.17c9.08-4.97,18.66-9.22,28.75-12.78c10.07-3.55,19.66-7.03,28.75-10.43
		c9.08-3.41,16.54-7.24,22.36-11.5c5.82-4.26,8.73-9.65,8.73-16.18v-26.41c0-11.93-1.77-21.01-5.32-27.26
		c-3.56-6.24-8.31-10.44-14.27-12.57c-5.96-2.13-12.64-3.2-20.02-3.2c-7.1,0-14.7,1-22.79,2.98c-8.09,1.99-14.55,6.11-19.38,12.35
		c5.39,1.14,10.07,3.98,14.05,8.52c3.97,4.55,5.96,10.37,5.96,17.46c0,7.1-2.27,12.71-6.81,16.83c-4.54,4.12-10.36,6.18-17.46,6.18
		c-8.24,0-14.27-2.62-18.1-7.88c-3.83-5.25-5.75-11.14-5.75-17.68c0-7.38,1.84-13.34,5.53-17.89c3.69-4.54,8.37-8.8,14.06-12.78
		c6.53-4.54,14.97-8.45,25.34-11.71c10.36-3.26,22.08-4.9,35.14-4.9c11.64,0,21.58,1.35,29.82,4.05c8.24,2.7,15.05,6.6,20.44,11.71
		c7.38,6.81,12.21,15.12,14.48,24.92c2.27,9.8,3.41,21.51,3.41,35.14v118.41c0,6.81,0.99,11.86,2.98,15.12
		c1.98,3.27,5.39,4.9,10.22,4.9c3.97,0,7.45-0.85,10.44-2.55c2.98-1.71,5.89-3.83,8.73-6.39l4.69,7.24
		c-5.96,4.54-11.65,8.31-17.04,11.29c-5.39,2.98-12.64,4.47-21.72,4.47c-14.77,0-24.56-3.83-29.39-11.5
		c-4.83-7.66-7.24-16.47-7.24-26.41c-9.09,15.05-19.38,25.13-30.88,30.24C1267.29,1111.64,1255.29,1114.2,1242.79,1114.2z
		 M1261.53,1097.16c8.52,0,16.9-2.48,25.13-7.45c8.24-4.97,15.9-13.27,23-24.92v-83.48c-4.26,6.25-10.86,11.22-19.81,14.91
		c-8.94,3.7-18.18,7.74-27.69,12.14c-9.51,4.41-17.67,10.37-24.49,17.89c-6.81,7.53-10.23,18.25-10.23,32.16
		c0,13.06,3.27,22.79,9.8,29.18C1243.78,1093.97,1251.88,1097.16,1261.53,1097.16z"/>
	<path d="M797.3,1055.17c-7.45,15.97-16.46,27.04-27.24,33.22c-10.88,6.27-22.63,9.41-35.37,9.41c-10.78,0-21.26-3.63-31.35-10.88
		c-10.09-7.25-18.22-17.83-24.5-31.75c-6.27-13.91-9.31-30.47-9.31-49.78c0-5.1,0.1-10.29,0.39-15.38c0.14-3.18,0.42-6.08,0.74-8.87
		h133.4v-10.77c0-0.82-0.11-1.62-0.28-2.39c-1.35-26.98-8.21-47.24-20.78-60.77c-14.01-15.19-33.61-22.83-58.59-22.83
		c-19.3,0-36.16,4.9-50.66,14.7c-14.5,9.8-25.67,23.71-33.61,41.74c-7.94,18.03-11.95,39.58-11.95,64.57
		c0,21.56,3.92,40.66,11.76,57.22c7.74,16.66,19.01,29.69,33.61,39c14.6,9.41,32.14,14.11,52.62,14.11
		c14.21,0,26.65-2.84,37.43-8.33c10.78-5.59,19.79-12.74,26.85-21.56c7.15-8.72,12.25-17.83,15.38-27.24L797.3,1055.17z
		 M688.05,912.11c10.09-13.13,21.65-19.6,34.69-19.6c9.7,0,17.54,3.53,23.61,10.58c6.17,7.15,10.58,16.56,13.42,28.42
		c1.58,6.56,2.67,17.36,3.22,28.06h-89.91C675.51,938.48,679.7,922.85,688.05,912.11z"/>
</g>
</svg>
